<?xml version="1.0" encoding="UTF-8" standalone="no"?>
<!DOCTYPE svg PUBLIC "-//W3C//DTD SVG 1.1//EN" "http://www.w3.org/Graphics/SVG/1.1/DTD/svg11.dtd">
<svg width="792.00" height="614.16" viewBox="0.00 0.00 3300.00 2559.00" xmlns="http://www.w3.org/2000/svg" xmlns:xlink="http://www.w3.org/1999/xlink">
<g stroke-linecap="round" id="Cactus">
<path d="M3052.00,1072.00 C3051.89,1077.18 3054.21,1117.11 3055.24,1132.15 C3055.77,1144.23 3056.22,1179.82 3056.00,1196.18 C3055.48,1211.25 3053.98,1241.60 3053.28,1257.09 C3052.64,1288.99 3051.07,1351.47 3050.13,1382.05 C3048.51,1413.56 3045.55,1476.98 3044.21,1508.90 C3043.78,1531.51 3044.35,1598.40 3044.89,1602.00 C3045.49,1605.84 3047.48,1610.59 3047.98,1611.85" fill="none" stroke="rgb(106, 243, 38)" stroke-width="170.00" stroke-opacity="1.00" stroke-linejoin="round"/>
<path d="M3040.00,1360.00 C3035.72,1362.27 3032.22,1363.19 3028.23,1362.66 C3021.92,1361.83 2978.94,1353.25 2970.38,1351.82 C2963.20,1350.43 2959.80,1349.66 2958.35,1348.63 C2956.73,1347.42 2954.68,1343.70 2951.77,1337.82 C2951.59,1337.45 2934.27,1298.89 2927.25,1282.94 C2921.09,1268.06 2908.79,1237.75 2903.62,1223.95 C2900.27,1214.41 2895.57,1199.28 2893.94,1190.53 C2893.36,1187.42 2892.39,1182.19 2892.00,1180.07" fill="none" stroke="rgb(106, 243, 38)" stroke-width="170.00" stroke-opacity="1.00" stroke-linejoin="round"/>
<path d="M3088.00,1280.00 C3086.98,1278.92 3084.01,1275.93 3083.72,1275.33 C3083.14,1274.11 3084.29,1272.98 3085.96,1272.64 C3091.06,1271.62 3108.70,1270.38 3115.83,1269.71 C3122.77,1268.96 3136.73,1266.72 3143.06,1267.03 C3146.30,1267.20 3152.97,1268.27 3156.16,1269.48 C3159.61,1270.83 3165.54,1274.78 3167.97,1277.48 C3172.22,1282.31 3180.63,1295.12 3182.43,1299.45 C3184.43,1304.33 3189.26,1322.08 3191.13,1329.23 C3193.10,1337.48 3196.67,1353.15 3198.27,1360.57 C3200.00,1369.84 3202.28,1385.17 3203.18,1392.10 C3204.01,1399.38 3204.00,1406.84 3204.00,1408.00" fill="none" stroke="rgb(106, 243, 38)" stroke-width="170.00" stroke-opacity="1.00" stroke-linejoin="round"/>
<path d="M3056.00,1572.00 C3056.00,1572.00 3052.25,1572.00 3052.25,1572.00 C3052.25,1572.00 3049.45,1562.69 3049.45,1562.69 C3050.18,1563.68 3052.01,1566.18 3053.11,1567.68 C3054.42,1569.46 3055.11,1570.84 3056.00,1573.22 C3056.00,1573.22 3056.00,1572.86 3056.00,1572.86" fill="none" stroke="rgb(0, 0, 0)" stroke-width="20.00" stroke-opacity="1.00" stroke-linejoin="round"/>
<path d="M3032.00,1492.00 C3031.12,1493.63 3029.69,1495.24 3028.85,1495.15 C3027.82,1494.99 3025.24,1487.15 3024.88,1483.12 C3024.49,1478.07 3025.36,1473.76 3026.72,1472.41" fill="none" stroke="rgb(0, 0, 0)" stroke-width="20.00" stroke-opacity="1.00" stroke-linejoin="round"/>
<path d="M3044.00,1416.00 C3042.51,1415.75 3041.47,1415.75 3040.88,1416.00 C3039.72,1416.46 3039.00,1418.03 3037.75,1418.05 C3036.71,1418.06 3035.94,1415.07 3036.00,1413.18 C3036.02,1412.83 3036.02,1412.44 3036.00,1412.00" fill="none" stroke="rgb(0, 0, 0)" stroke-width="20.00" stroke-opacity="1.00" stroke-linejoin="round"/>
<path d="M3060.00,1292.00 C3060.00,1292.00 3057.47,1294.34 3057.47,1294.34 C3057.69,1292.87 3058.26,1289.16 3058.60,1286.92 C3059.38,1281.55 3059.87,1277.46 3060.00,1276.28" fill="none" stroke="rgb(0, 0, 0)" stroke-width="20.00" stroke-opacity="1.00" stroke-linejoin="round"/>
<path d="M3056.00,1196.00 C3056.02,1195.12 3056.04,1194.24 3056.06,1193.36 C3056.07,1192.68 3056.09,1191.63 3056.10,1191.25 C3056.12,1189.69 3056.16,1186.59 3056.18,1185.07 C3052.38,1184.00 3051.78,1183.39 3051.75,1182.29 C3051.75,1182.29 3051.81,1183.24 3051.81,1183.24" fill="none" stroke="rgb(0, 0, 0)" stroke-width="20.00" stroke-opacity="1.00" stroke-linejoin="round"/>
<path d="M3164.00,1280.00 C3164.00,1280.00 3160.00,1280.00 3160.00,1280.00 C3160.85,1280.34 3163.24,1281.27 3164.39,1281.69 C3165.54,1282.11 3168.90,1283.26 3170.15,1283.69" fill="none" stroke="rgb(0, 0, 0)" stroke-width="20.00" stroke-opacity="1.00" stroke-linejoin="round"/>
<path d="M3204.00,1364.00 C3203.86,1366.03 3203.83,1369.46 3204.00,1371.62 C3204.43,1376.87 3206.89,1384.77 3207.17,1385.51" fill="none" stroke="rgb(0, 0, 0)" stroke-width="20.00" stroke-opacity="1.00" stroke-linejoin="round"/>
<path d="M3051.30,1348.09 C3049.16,1348.29 3045.82,1348.36 3044.32,1348.00 C3042.81,1347.63 3039.12,1345.58 3037.69,1344.73 C3037.31,1344.52 3036.75,1344.28 3036.00,1344.00" fill="none" stroke="rgb(0, 0, 0)" stroke-width="20.00" stroke-opacity="1.00" stroke-linejoin="round"/>
<path d="M2968.12,1351.38 C2968.12,1351.38 2968.33,1351.42 2968.33,1351.42 C2967.98,1351.35 2966.17,1355.39 2965.10,1356.84 C2963.70,1358.69 2957.90,1359.74 2953.39,1359.91 C2950.31,1360.02 2945.97,1360.01 2944.98,1360.00" fill="none" stroke="rgb(0, 0, 0)" stroke-width="20.00" stroke-opacity="1.00" stroke-linejoin="round"/>
<path d="M2929.09,1287.25 C2929.09,1287.25 2929.82,1288.94 2929.82,1288.94 C2929.18,1287.46 2927.94,1284.54 2927.33,1283.11 C2925.69,1279.20 2923.46,1273.91 2922.87,1272.51 C2922.56,1271.76 2922.25,1271.01 2921.93,1270.25" fill="none" stroke="rgb(0, 0, 0)" stroke-width="20.00" stroke-opacity="1.00" stroke-linejoin="round"/>
<path d="M2884.00,1208.00 C2884.00,1205.51 2884.00,1199.52 2884.00,1196.02 C2884.00,1194.16 2884.00,1190.79 2884.00,1189.27 C2884.00,1187.73 2884.00,1185.41 2884.00,1184.63" fill="none" stroke="rgb(0, 0, 0)" stroke-width="20.00" stroke-opacity="1.00" stroke-linejoin="round"/>
</g>
</svg>
