<?xml version="1.0" encoding="UTF-8" standalone="no"?>
<!DOCTYPE svg PUBLIC "-//W3C//DTD SVG 1.1//EN" "http://www.w3.org/Graphics/SVG/1.1/DTD/svg11.dtd">
<svg width="792.00" height="614.16" viewBox="0.00 0.00 3300.00 2559.00" xmlns="http://www.w3.org/2000/svg" xmlns:xlink="http://www.w3.org/1999/xlink">
<g stroke-linecap="round" id="Dunes2">
<path d="M-292.00,1632.00 C-288.08,1627.70 -275.26,1613.54 -271.77,1610.45 C-268.31,1607.42 -260.78,1602.23 -256.93,1600.23 C-251.21,1597.31 -236.90,1593.24 -228.95,1592.27 C-212.65,1590.55 -180.04,1588.01 -165.41,1587.06 C-149.07,1586.27 -117.37,1585.11 -102.01,1584.74 C-78.38,1584.96 -16.98,1586.41 21.83,1587.14 C49.96,1587.39 112.87,1587.83 147.65,1588.02 C185.07,1588.19 253.72,1588.58 284.96,1588.81 C316.27,1589.20 372.63,1590.25 397.67,1590.91 C422.55,1591.49 492.31,1591.86 524.67,1591.90 C554.62,1591.81 619.85,1591.54 655.13,1591.36 C693.70,1591.10 766.43,1590.58 800.59,1590.33 C829.60,1590.08 892.81,1589.49 927.02,1589.15 C954.91,1588.78 1008.19,1588.10 1033.59,1587.79 C1067.41,1587.59 1126.86,1587.35 1152.50,1587.29 C1182.30,1587.26 1246.08,1587.24 1280.06,1587.24 C1315.48,1587.30 1385.34,1587.49 1419.79,1587.62 C1453.26,1587.84 1520.45,1588.41 1554.17,1588.78 C1587.75,1589.26 1654.41,1590.35 1687.49,1590.94 C1719.92,1591.63 1783.36,1593.09 1814.36,1593.85 C1843.84,1594.68 1902.05,1596.44 1930.78,1597.37 C1959.44,1598.45 2015.50,1600.68 2042.89,1601.84 C2069.46,1603.12 2127.24,1606.12 2158.45,1607.85 C2195.91,1610.12 2270.60,1614.81 2307.83,1617.21 C2334.26,1618.99 2389.18,1622.71 2417.65,1624.65 C2448.17,1626.77 2511.26,1631.18 2543.82,1633.47 C2578.43,1635.93 2648.61,1640.91 2684.18,1643.43 C2718.82,1645.82 2787.13,1650.45 2820.79,1652.70 C2853.49,1654.81 2917.90,1658.89 2949.62,1660.86 C2983.27,1662.86 3054.12,1666.98 3091.31,1669.09 C3127.07,1670.98 3197.17,1674.54 3231.49,1676.21 C3264.39,1677.66 3328.57,1680.41 3359.85,1681.72 C3389.38,1682.94 3446.70,1685.28 3474.48,1686.41 C3500.51,1687.44 3564.71,1689.96 3602.87,1691.43 C3640.56,1692.82 3710.39,1695.34 3742.52,1696.47 C3769.20,1697.52 3818.62,1699.71 3841.37,1700.83 C3851.35,1701.58 3870.20,1703.21 3879.08,1704.08 C3892.41,1705.67 3908.87,1707.63 3912.00,1708.00" fill="none" stroke="rgb(158, 137, 89)" stroke-width="2000.00" stroke-opacity="1.00" stroke-linejoin="round"/>
</g>
</svg>
