<?xml version="1.0" encoding="UTF-8" standalone="no"?>
<!DOCTYPE svg PUBLIC "-//W3C//DTD SVG 1.1//EN" "http://www.w3.org/Graphics/SVG/1.1/DTD/svg11.dtd">
<svg width="792.00" height="614.16" viewBox="0.00 0.00 3300.00 2559.00" xmlns="http://www.w3.org/2000/svg" xmlns:xlink="http://www.w3.org/1999/xlink">
<g stroke-linecap="round" id="Dunes">
<path d="M-34.00,2026.00 C-31.59,2021.08 -25.48,2008.89 -17.97,1999.73 C-16.03,1997.38 -3.90,1984.65 1.88,1979.01 C8.03,1973.21 20.32,1962.17 26.44,1956.96 C30.75,1953.39 44.59,1942.87 50.69,1938.54 C62.73,1930.33 87.02,1915.84 102.39,1907.72 C115.54,1901.10 143.94,1887.75 158.93,1881.16 C168.81,1876.95 200.84,1864.53 215.05,1859.17 C230.08,1853.87 260.33,1843.59 275.55,1838.62 C290.17,1834.22 320.12,1825.48 335.45,1821.13 C351.14,1816.97 382.39,1808.97 397.97,1805.14 C412.96,1801.75 443.32,1795.11 458.70,1791.86 C489.87,1785.70 552.06,1773.94 583.08,1768.35 C614.52,1763.03 676.93,1752.85 707.91,1747.99 C738.89,1743.49 800.78,1735.06 831.69,1731.13 C863.23,1727.79 925.47,1721.68 957.19,1719.31 C973.41,1718.36 1005.63,1716.70 1021.63,1716.01 C1037.13,1715.65 1063.41,1715.19 1084.14,1715.50 C1099.88,1716.03 1131.00,1717.49 1146.38,1718.42 C1168.12,1720.15 1192.56,1723.01 1208.54,1725.20 C1224.40,1727.64 1255.43,1733.26 1270.53,1736.45 C1279.62,1738.49 1315.62,1748.32 1330.46,1752.91 C1345.35,1757.96 1371.11,1767.69 1390.30,1776.06 C1405.56,1783.13 1434.18,1797.27 1447.42,1803.93 C1461.32,1811.10 1481.97,1823.21 1498.11,1833.71 C1510.10,1842.01 1538.34,1861.95 1546.75,1868.42 C1558.56,1877.75 1581.79,1897.11 1593.17,1907.26 C1604.58,1917.80 1623.70,1936.22 1636.94,1949.84 C1647.20,1960.85 1667.44,1983.16 1677.42,1994.79 C1687.34,2006.69 1706.07,2030.41 1715.09,2042.45 C1724.02,2054.75 1741.31,2080.07 1749.83,2093.35 C1758.18,2106.84 1773.62,2133.67 1780.94,2147.39 C1787.76,2160.62 1800.52,2185.98 1806.45,2198.12 C1811.03,2207.76 1825.17,2242.10 1830.83,2256.46 C1842.42,2287.50 1865.09,2349.72 1875.41,2380.26 C1884.78,2409.81 1902.13,2470.02 1911.20,2502.15 C1915.97,2519.56 1925.58,2554.73 1930.40,2572.49 C1933.96,2585.55 1938.75,2603.20 1940.00,2607.78" fill="none" stroke="rgb(197, 171, 111)" stroke-width="2000.00" stroke-opacity="1.00" stroke-linejoin="round"/>
<path d="M-120.00,2350.00 C-118.22,2344.74 -113.73,2331.47 -111.03,2323.47 C-107.73,2313.82 -100.86,2298.18 -97.42,2292.48 C-94.89,2288.33 -89.68,2281.58 -86.94,2278.87 C-83.87,2275.88 -51.04,2254.18 -38.22,2246.02 C-27.79,2239.59 -24.65,2237.79 -14.68,2232.50 C-0.84,2225.31 27.71,2215.03 40.60,2210.47 C56.75,2205.10 89.61,2194.64 106.32,2189.55 C120.06,2185.76 148.19,2178.23 162.60,2174.51 C177.90,2170.87 211.10,2163.83 228.12,2160.61 C243.49,2158.00 275.46,2152.85 292.05,2150.32 C309.20,2147.95 341.59,2143.57 356.82,2141.58 C371.00,2139.89 404.27,2136.27 420.33,2134.92 C433.58,2134.20 460.82,2132.91 474.82,2132.34 C489.86,2131.92 521.10,2131.15 537.29,2130.81 C553.23,2130.77 584.73,2131.03 600.31,2131.32 C616.18,2131.84 647.81,2133.09 663.56,2133.82 C678.98,2134.78 710.05,2136.91 725.70,2138.07 C741.25,2139.38 772.32,2142.21 787.85,2143.72 C803.56,2145.42 834.93,2148.99 850.58,2150.86 C866.13,2152.96 897.40,2157.40 913.12,2159.75 C928.76,2162.25 959.90,2167.42 975.40,2170.08 C1006.75,2176.06 1068.73,2188.42 1099.78,2195.36 C1115.08,2198.99 1145.39,2206.51 1160.41,2210.40 C1175.97,2214.84 1206.64,2223.91 1221.76,2228.55 C1236.34,2233.23 1265.78,2243.45 1280.38,2248.64 C1294.31,2253.93 1322.54,2265.05 1336.88,2271.15 C1350.95,2277.39 1377.96,2290.22 1392.30,2297.72 C1406.42,2305.49 1436.12,2323.12 1446.29,2329.81 C1459.01,2338.51 1485.84,2358.15 1495.23,2365.76 C1507.13,2375.85 1528.55,2393.97 1538.07,2402.01 C1544.98,2407.70 1549.52,2411.84 1558.08,2421.18 C1570.51,2435.20 1624.32,2500.12 1648.98,2530.12 C1658.49,2541.71 1674.00,2560.63 1680.00,2567.95" fill="none" stroke="rgb(197, 171, 111)" stroke-width="2000.00" stroke-opacity="1.00" stroke-linejoin="round"/>
<path d="M-154.00,2416.00 C-149.50,2416.14 -137.84,2416.50 -130.68,2416.72 C-99.25,2418.09 -33.50,2421.08 0.82,2422.71 C31.57,2423.96 87.20,2425.98 112.07,2426.75 C144.10,2427.99 213.03,2431.12 249.94,2433.02 C279.44,2434.65 343.13,2438.24 377.30,2440.21 C415.22,2442.45 487.56,2446.68 521.99,2448.68 C551.41,2450.33 613.52,2453.72 646.21,2455.46 C664.28,2456.32 695.41,2457.70 708.45,2458.22 C732.96,2458.62 789.49,2459.13 821.51,2459.23 C849.58,2459.17 910.92,2458.96 944.19,2458.81 C980.13,2458.71 1049.11,2458.83 1082.15,2459.06 C1097.51,2459.31 1130.40,2459.97 1147.93,2460.38 C1168.89,2461.11 1209.03,2462.79 1228.20,2463.76 C1245.58,2464.95 1277.81,2467.28 1292.65,2468.41 C1313.34,2470.00 1334.91,2471.65 1335.81,2471.72" fill="none" stroke="rgb(197, 171, 111)" stroke-width="2000.00" stroke-opacity="1.00" stroke-linejoin="round"/>
<path d="M1822.00,1864.00 C1834.18,1856.50 1864.23,1838.28 1874.94,1832.94 C1881.76,1829.60 1891.30,1825.78 1901.03,1822.42 C1912.98,1818.56 1942.61,1810.11 1956.58,1806.26 C1973.55,1801.93 2006.94,1793.72 2023.36,1789.83 C2056.84,1782.41 2128.67,1766.87 2153.19,1762.23 C2165.28,1760.14 2193.34,1756.28 2205.66,1754.64 C2223.56,1752.49 2252.03,1750.29 2264.78,1749.72 C2279.87,1749.23 2311.70,1748.48 2328.44,1748.22 C2345.05,1748.29 2378.13,1749.28 2394.69,1749.95 C2410.26,1750.89 2440.45,1752.93 2455.08,1754.04 C2471.40,1755.73 2498.39,1759.52 2512.77,1762.09 C2520.51,1763.57 2535.99,1766.70 2543.52,1768.45 C2551.06,1770.33 2565.86,1775.07 2573.20,1777.72 C2581.44,1780.87 2595.37,1787.15 2600.73,1790.24 C2607.35,1794.09 2619.63,1802.48 2625.26,1807.06 C2631.82,1812.42 2640.67,1821.24 2646.15,1827.80 C2650.90,1833.52 2659.37,1845.29 2664.32,1853.08 C2670.60,1863.28 2683.40,1889.60 2690.99,1907.30 C2697.07,1922.54 2706.66,1949.90 2711.41,1964.54 C2716.03,1979.69 2723.39,2005.88 2727.98,2024.58 C2731.40,2039.62 2738.01,2070.22 2741.20,2085.77 C2744.18,2101.50 2749.28,2132.62 2751.76,2148.44 C2754.03,2164.44 2758.30,2195.42 2760.29,2210.39 C2761.85,2223.69 2764.79,2249.69 2766.16,2262.40 C2768.91,2295.00 2773.25,2362.74 2774.93,2391.61 C2776.79,2426.70 2780.40,2494.63 2782.16,2527.46 C2784.26,2564.23 2788.47,2633.80 2790.58,2666.59 C2791.23,2676.29 2791.94,2686.87 2792.00,2687.76" fill="none" stroke="rgb(197, 171, 111)" stroke-width="2000.00" stroke-opacity="1.00" stroke-linejoin="round"/>
<path d="M2136.22,2036.00 C2148.53,2063.52 2173.88,2121.05 2186.92,2151.06 C2192.10,2163.89 2201.90,2189.15 2206.52,2201.58 C2211.48,2216.04 2221.74,2248.35 2225.96,2262.07 C2230.44,2277.10 2239.73,2308.77 2244.55,2325.41 C2248.92,2341.45 2257.30,2373.56 2261.31,2389.63 C2264.89,2405.54 2271.59,2436.84 2274.71,2452.22 C2277.47,2467.14 2282.70,2497.06 2285.18,2512.04 C2287.33,2526.92 2291.36,2556.76 2293.24,2571.73 C2296.81,2604.34 2302.86,2673.15 2305.73,2708.07 C2306.22,2714.22 2307.10,2725.08 2307.48,2729.79" fill="none" stroke="rgb(197, 171, 111)" stroke-width="2000.00" stroke-opacity="1.00" stroke-linejoin="round"/>
<path d="M2428.00,1952.00 C2427.28,1963.32 2425.42,1992.74 2424.27,2010.84 C2423.44,2024.70 2421.66,2054.97 2420.72,2071.39 C2420.03,2088.77 2419.02,2122.58 2418.70,2139.01 C2418.62,2169.81 2419.79,2233.07 2420.58,2264.53 C2421.95,2297.19 2425.18,2360.98 2427.03,2392.10 C2428.25,2407.75 2431.12,2440.38 2432.76,2457.36 C2434.53,2472.90 2438.00,2501.95 2439.71,2515.46 C2442.00,2530.75 2446.56,2559.42 2450.22,2574.02 C2456.77,2597.88 2476.83,2652.38 2481.77,2665.74" fill="none" stroke="rgb(197, 171, 111)" stroke-width="2000.00" stroke-opacity="1.00" stroke-linejoin="round"/>
<path d="M2878.00,2208.00 C2905.90,2217.26 2970.81,2239.02 2999.27,2249.21 C3009.69,2253.14 3026.72,2260.76 3030.78,2263.94 C3036.65,2268.69 3062.69,2287.41 3075.97,2296.77 C3083.42,2302.15 3106.42,2321.60 3122.10,2336.22 C3130.42,2344.25 3152.13,2365.42 3158.79,2372.22 C3170.76,2384.99 3195.44,2413.08 3206.69,2426.18 C3227.68,2451.79 3270.37,2504.46 3292.06,2531.53 C3300.68,2542.20 3321.75,2568.03 3334.20,2583.19 C3343.10,2593.43 3353.87,2605.79 3355.73,2607.90" fill="none" stroke="rgb(197, 171, 111)" stroke-width="2000.00" stroke-opacity="1.00" stroke-linejoin="round"/>
<path d="M88.00,2732.00 C85.43,2718.08 78.96,2682.38 78.46,2670.39 C78.33,2666.53 78.98,2658.33 79.91,2654.91 C80.86,2651.58 84.69,2646.25 85.75,2644.76 C90.11,2638.66 109.56,2605.25 117.36,2591.44 C125.61,2577.10 139.56,2553.25 151.46,2534.78 C160.18,2521.79 180.14,2494.45 188.44,2484.27 C197.00,2474.08 225.70,2442.70 232.11,2436.85 C235.32,2433.93 247.98,2423.84 252.92,2420.00 C260.71,2413.77 270.30,2407.16 278.10,2402.58 C290.13,2395.74 322.58,2378.56 334.02,2373.73 C347.97,2367.98 377.10,2358.10 392.24,2353.54 C402.94,2350.51 436.07,2342.55 451.40,2339.27 C467.39,2336.15 498.02,2330.59 512.64,2328.15 C528.23,2325.80 560.01,2321.29 576.21,2319.13 C606.64,2315.71 669.05,2310.07 701.00,2307.85 C716.32,2307.07 747.34,2305.69 763.04,2305.09 C778.87,2304.67 810.40,2303.99 826.11,2303.74 C841.85,2303.74 873.50,2303.92 889.40,2304.10 C905.23,2304.48 936.58,2305.46 952.10,2306.07 C967.93,2307.05 999.56,2309.28 1015.37,2310.52 C1030.91,2312.01 1061.68,2315.24 1076.91,2316.98 C1092.68,2319.20 1124.04,2323.93 1139.63,2326.44 C1154.85,2329.21 1184.96,2334.93 1200.68,2338.37 C1216.30,2342.08 1247.27,2349.84 1262.62,2353.89 C1277.54,2358.16 1307.87,2367.78 1323.19,2373.09 C1338.36,2378.62 1367.81,2390.26 1382.00,2396.36 C1396.42,2403.05 1424.56,2417.30 1438.46,2424.57 C1451.25,2431.57 1476.92,2446.03 1489.80,2453.48 C1502.40,2461.08 1529.25,2477.51 1543.50,2486.34 C1558.39,2495.72 1587.67,2514.21 1602.06,2523.31 C1607.02,2526.45 1613.89,2530.80 1615.80,2532.00" fill="none" stroke="rgb(225, 195, 123)" stroke-width="2000.00" stroke-opacity="1.00" stroke-linejoin="round"/>
<path d="M1520.00,2580.00 C1520.35,2574.71 1521.55,2556.31 1522.02,2552.96 C1522.65,2548.60 1524.82,2539.84 1526.31,2535.63 C1528.83,2528.64 1536.39,2515.02 1541.08,2508.62 C1545.28,2502.93 1571.50,2472.48 1582.92,2460.74 C1593.97,2449.90 1612.69,2432.56 1627.99,2419.69 C1639.79,2410.14 1660.11,2394.50 1676.71,2382.83 C1689.75,2374.03 1715.63,2357.68 1728.73,2350.00 C1742.01,2342.61 1769.54,2328.00 1783.79,2320.78 C1805.54,2310.12 1822.56,2302.38 1834.54,2296.97 C1850.65,2290.38 1879.96,2279.93 1893.54,2275.17 C1909.87,2269.64 1942.45,2259.00 1958.69,2253.87 C1974.58,2249.21 2006.59,2240.73 2022.22,2236.97 C2037.56,2233.60 2068.03,2227.21 2083.16,2224.21 C2098.76,2221.58 2129.88,2216.71 2145.40,2214.48 C2160.68,2212.65 2186.48,2210.14 2207.27,2209.07 C2223.28,2208.56 2255.17,2208.54 2270.96,2209.04 C2283.24,2209.64 2318.13,2213.07 2334.04,2215.16 C2349.96,2217.58 2381.61,2223.36 2396.58,2226.75 C2419.36,2232.32 2485.48,2251.05 2511.01,2258.93 C2523.50,2262.94 2552.72,2272.83 2569.46,2278.70 C2598.07,2289.38 2658.29,2312.21 2689.90,2324.37 C2721.38,2336.73 2785.08,2362.17 2817.31,2375.24 C2847.68,2388.08 2903.55,2412.16 2929.05,2423.41 C2939.07,2428.05 2957.17,2436.60 2965.25,2440.52 C2975.82,2445.80 2987.19,2451.47 2988.00,2451.88" fill="none" stroke="rgb(225, 195, 123)" stroke-width="2000.00" stroke-opacity="1.00" stroke-linejoin="round"/>
<path d="M128.00,3002.00 C135.01,2990.10 152.32,2960.79 161.61,2945.65 C167.73,2936.13 177.58,2922.11 182.09,2918.43 C183.40,2917.38 194.89,2910.42 203.47,2905.87 C224.48,2895.28 241.60,2888.05 254.36,2883.90 C272.56,2878.29 348.92,2859.17 381.85,2851.10 C413.92,2843.44 476.31,2828.68 506.63,2821.57 C536.72,2814.20 597.19,2798.98 627.57,2791.13 C658.25,2782.85 719.77,2766.10 750.63,2757.62 C766.26,2753.29 796.95,2744.92 812.01,2740.90 C826.56,2737.20 856.38,2729.92 871.66,2726.33 C886.31,2723.17 915.67,2717.13 930.92,2714.38 C946.98,2711.83 978.64,2707.30 994.24,2705.31 C1028.14,2701.88 1090.37,2695.83 1118.72,2693.21 C1131.05,2692.14 1150.81,2690.45 1170.32,2689.64 C1202.81,2688.95 1268.75,2687.85 1302.20,2687.44 C1338.54,2687.04 1405.65,2686.24 1436.42,2685.84 C1472.53,2685.09 1534.87,2683.45 1561.11,2682.57 C1586.09,2681.55 1646.38,2678.46 1681.70,2676.39 C1711.96,2674.28 1775.83,2669.70 1809.43,2667.24 C1845.87,2664.55 1913.03,2659.68 1943.74,2657.52 C1959.51,2656.47 1995.39,2654.23 2015.49,2653.04 C2043.22,2651.93 2098.87,2650.15 2126.79,2649.48 C2158.04,2649.05 2221.66,2648.54 2254.04,2648.46 C2285.43,2648.94 2348.90,2650.24 2380.98,2651.07 C2412.34,2652.19 2475.13,2654.74 2506.57,2656.16 C2538.09,2657.92 2601.10,2661.92 2632.59,2664.15 C2664.25,2666.71 2725.60,2671.85 2755.29,2674.43 C2783.38,2677.07 2845.64,2683.43 2879.80,2687.15 C2911.92,2691.05 2979.02,2699.41 3014.00,2703.87 C3048.56,2708.36 3108.92,2716.23 3134.71,2719.61 C3154.64,2722.34 3185.14,2726.53 3195.72,2728.00" fill="none" stroke="rgb(255, 203, 79)" stroke-width="2000.00" stroke-opacity="1.00" stroke-linejoin="round"/>
</g>
</svg>
