<?xml version="1.0" encoding="UTF-8" standalone="no"?>
<!DOCTYPE svg PUBLIC "-//W3C//DTD SVG 1.1//EN" "http://www.w3.org/Graphics/SVG/1.1/DTD/svg11.dtd">
<svg width="792.00" height="614.16" viewBox="0.00 0.00 3300.00 2559.00" xmlns="http://www.w3.org/2000/svg" xmlns:xlink="http://www.w3.org/1999/xlink">
<g stroke-linecap="round" id="Sky">
<path d="M78.45,138.11 C99.98,134.71 166.56,121.73 197.86,115.47 C214.93,112.27 248.08,106.35 263.68,103.94 C279.27,101.81 308.96,98.49 323.06,97.29 C354.94,95.27 414.22,91.94 441.62,90.63 C472.59,89.37 538.88,86.70 574.20,85.29 C605.25,84.04 666.18,81.56 696.06,80.33 C728.28,78.99 793.69,76.36 826.86,75.09 C860.53,73.95 925.68,71.88 957.15,70.95 C989.14,70.12 1053.75,68.53 1086.37,67.78 C1118.70,66.93 1182.75,65.07 1214.48,64.07 C1246.71,62.86 1311.15,60.25 1343.36,58.84 C1375.09,57.25 1438.46,53.95 1470.12,52.23 C1501.88,50.41 1568.97,46.44 1604.29,44.29 C1641.20,41.92 1713.47,37.18 1748.84,34.82 C1775.05,33.07 1815.13,30.45 1829.01,29.59 C1849.04,29.13 1891.76,28.17 1914.46,27.66 C1939.82,27.09 1993.21,25.89 2021.24,25.26 C2051.94,24.57 2116.01,23.13 2149.37,22.38 C2185.41,21.56 2260.14,19.88 2298.85,19.01 C2340.22,18.08 2425.60,16.16 2469.61,15.17 C2513.15,14.19 2597.56,12.29 2638.43,11.37 C2676.63,10.51 2750.37,8.85 2785.90,8.05 C2818.77,7.31 2881.83,5.89 2912.03,5.21 C2939.56,4.59 2991.95,3.41 3016.82,2.85 C3039.01,2.35 3077.27,1.49 3093.34,1.13" fill="none" stroke="rgb(105, 233, 220)" stroke-width="2000.00" stroke-opacity="1.00" stroke-linejoin="round"/>
<path d="M2387.57,2.96 C2408.01,6.23 2452.95,13.42 2477.44,17.34 C2505.98,21.91 2567.10,31.69 2599.68,36.91 C2636.31,42.77 2713.61,55.15 2754.28,61.66 C2797.72,68.61 2881.33,81.99 2921.50,88.42 C2957.62,94.21 3025.82,105.12 3057.90,110.26 C3085.93,114.74 3137.95,123.07 3161.93,126.91 C3172.41,128.59 3190.08,131.42 3197.27,132.57 C3197.49,138.57 3197.85,151.04 3197.56,159.68 C3197.21,166.95 3195.92,182.95 3195.15,189.03 C3194.09,196.32 3191.43,210.83 3189.63,217.98 C3187.39,226.39 3183.00,239.75 3180.17,246.72 C3177.05,254.20 3170.33,267.53 3166.32,273.76 C3162.03,280.38 3152.86,291.95 3147.48,297.18 C3141.93,302.54 3129.94,311.91 3123.40,315.87 C3117.34,319.52 3102.30,327.08 3096.13,329.60 C3089.58,332.21 3075.56,337.26 3068.13,339.64 C3060.78,341.84 3046.30,345.39 3038.80,347.04 C3016.81,351.38 2992.39,354.78 2976.56,356.62 C2961.98,358.13 2934.97,360.64 2922.53,361.63 C2904.28,362.75 2829.15,364.11 2799.02,364.52 C2764.43,364.73 2698.02,364.94 2666.19,364.93 C2634.88,364.78 2571.39,364.59 2539.20,364.55 C2507.26,364.87 2443.94,365.84 2412.55,366.51 C2380.31,367.51 2315.64,369.93 2283.21,371.34 C2251.95,373.11 2189.27,377.04 2157.84,379.19 C2126.04,381.67 2062.63,386.85 2031.02,389.55 C1999.74,392.41 1936.86,398.34 1905.25,401.40 C1873.54,404.52 1810.44,410.60 1779.05,413.57 C1747.25,416.37 1683.35,421.79 1651.24,424.42 C1619.25,426.66 1555.72,430.53 1524.19,432.16 C1508.07,432.72 1475.80,433.68 1459.66,434.08 C1427.30,434.40 1363.12,434.48 1331.28,434.23 C1299.87,433.42 1236.68,431.17 1204.91,429.73 C1173.40,427.79 1110.20,423.73 1078.50,421.61 C1045.36,419.21 977.88,414.23 943.54,411.66 C912.66,409.38 850.20,404.97 818.62,402.85 C788.29,401.33 732.14,399.76 702.22,399.10 C685.75,398.95 653.36,398.93 637.44,399.05 C621.71,399.46 590.22,400.51 574.47,401.16 C558.97,402.05 528.02,404.16 512.56,405.38 C497.10,406.84 466.42,409.99 451.22,411.68 C435.88,413.69 405.18,417.99 389.83,420.29 C374.24,422.95 341.81,429.32 325.25,432.76 C279.73,443.12 258.31,448.97 250.99,451.08 C246.62,470.81 237.25,513.12 232.25,535.71 C226.61,561.17 214.70,614.94 208.42,643.26 C201.52,674.44 187.07,739.67 179.53,773.72 C171.35,810.63 154.36,887.32 145.55,927.09 C136.11,969.73 117.18,1055.18 107.69,1098.00 C98.84,1137.95 81.78,1214.99 73.56,1252.08 C65.98,1286.31 51.45,1351.90 44.51,1383.26 C38.19,1411.76 26.20,1465.89 20.52,1491.52 C15.48,1514.29 6.03,1556.97 1.62,1576.87 C1.45,1577.64 1.28,1578.41 1.11,1579.17" fill="none" stroke="rgb(105, 233, 220)" stroke-width="2000.00" stroke-opacity="1.00" stroke-linejoin="round"/>
<path d="M1.97,-165.93 C6.21,-146.26 15.28,-104.18 20.12,-81.77 C25.54,-56.62 36.99,-3.58 43.00,24.32 C49.61,54.95 63.42,118.96 70.62,152.33 C78.41,188.45 94.58,263.42 102.96,302.28 C111.93,343.87 130.29,428.94 139.66,472.42 C148.56,513.67 165.77,593.44 174.08,631.95 C181.79,667.73 196.64,736.53 203.76,769.56 C210.29,799.85 222.77,857.69 228.71,885.24 C234.07,910.05 244.18,956.93 248.94,978.99 C251.10,989.00 254.78,1006.06 256.30,1013.11 C262.03,1014.75 296.19,1021.98 312.91,1025.47 C330.61,1028.81 363.37,1034.00 378.63,1035.94 C393.73,1037.57 424.20,1040.22 439.59,1041.47 C470.80,1043.36 546.17,1046.42 563.88,1046.67 C593.35,1046.68 652.55,1046.18 682.28,1045.69 C704.49,1045.14 753.20,1043.79 779.69,1043.00 C818.71,1041.15 899.00,1036.96 940.27,1034.61 C967.71,1032.92 1025.57,1029.30 1055.98,1027.36 C1089.36,1025.17 1159.10,1020.55 1195.45,1018.11 C1232.86,1015.58 1304.92,1010.69 1339.59,1008.35 C1371.40,1006.21 1432.19,1002.12 1461.17,1000.18 C1492.87,998.07 1565.74,993.25 1606.91,990.54 C1638.22,988.54 1695.02,984.94 1720.50,983.34 C1747.34,981.58 1802.43,977.92 1830.69,976.00 C1860.60,973.92 1922.25,969.59 1953.99,967.33 C1986.71,965.02 2052.38,960.45 2085.32,958.20 C2118.57,956.01 2185.89,951.66 2219.96,949.50 C2254.69,947.38 2320.65,943.42 2351.88,941.58 C2378.10,940.12 2441.91,936.93 2479.50,935.21 C2506.09,934.53 2561.53,933.48 2590.39,933.10 C2606.27,932.99 2638.47,932.94 2654.79,933.00 C2671.27,933.29 2704.85,934.15 2721.94,934.74 C2755.85,936.43 2822.24,940.02 2846.41,942.29 C2847.59,942.41 2849.71,942.61 2850.65,942.69 C2861.82,960.19 2886.33,998.62 2899.68,1019.54 C2915.21,1043.88 2948.46,1095.97 2966.17,1123.73 C2986.06,1154.91 3028.03,1220.68 3050.11,1255.27 C3073.88,1292.53 3119.87,1364.60 3142.08,1399.41 C3162.11,1430.80 3199.99,1490.16 3217.84,1518.13 C3233.51,1542.68 3262.66,1588.37 3276.15,1609.50 C3287.45,1627.22 3299.39,1645.93 3300.02,1646.92" fill="none" stroke="rgb(105, 233, 220)" stroke-width="2000.00" stroke-opacity="1.00" stroke-linejoin="round"/>
<path d="M3299.73,733.96 C3288.87,751.56 3265.11,790.06 3252.22,810.96 C3237.29,835.15 3205.40,886.83 3188.43,914.32 C3169.44,945.10 3129.41,1009.96 3108.38,1044.04 C3085.36,1081.34 3039.92,1154.98 3017.49,1191.32 C2997.09,1224.37 2958.34,1287.18 2939.97,1316.93 C2923.65,1343.39 2893.02,1393.01 2878.73,1416.17 C2866.47,1436.04 2846.96,1467.65 2839.71,1479.40 C2813.32,1482.04 2755.08,1486.35 2722.24,1488.73 C2704.35,1489.78 2669.07,1491.57 2651.67,1492.32 C2635.05,1492.68 2602.07,1493.09 2585.70,1493.15 C2553.85,1492.54 2493.06,1491.04 2464.12,1490.14 C2438.32,1489.02 2387.96,1486.56 2356.74,1484.23 C2316.94,1480.49 2249.23,1473.83 2221.30,1470.91 C2188.82,1467.37 2119.46,1459.71 2082.57,1455.59 C2047.16,1451.62 1980.78,1444.22 1949.82,1440.79 C1918.97,1437.43 1849.99,1430.15 1811.87,1426.23 C1785.97,1423.94 1732.85,1419.58 1705.63,1417.51 C1675.45,1415.61 1612.57,1411.98 1579.87,1410.26 C1563.67,1409.61 1531.49,1408.47 1515.53,1407.99 C1484.09,1407.66 1420.95,1407.59 1389.24,1407.85 C1373.51,1408.20 1342.16,1409.06 1326.54,1409.57 C1294.63,1411.27 1230.60,1415.31 1198.46,1417.66 C1182.60,1419.03 1151.04,1421.90 1135.36,1423.39 C1103.54,1427.04 1039.95,1434.91 1008.17,1439.14 C992.54,1441.43 961.45,1446.15 946.00,1448.57 C914.88,1454.03 852.85,1465.46 821.92,1471.43 C791.40,1477.77 729.65,1491.10 698.43,1498.08 C667.64,1505.35 603.68,1520.90 570.52,1529.17 C536.23,1538.15 487.16,1551.02 472.37,1554.92 C460.37,1571.82 433.99,1608.98 419.61,1629.24 C402.85,1652.86 366.93,1703.46 347.78,1730.44 C326.25,1760.78 280.79,1824.81 256.87,1858.51 C231.41,1894.38 182.48,1963.32 159.01,1996.39 C137.92,2026.09 98.13,2082.15 79.42,2108.50 C63.11,2131.49 32.85,2174.11 18.92,2193.74 C12.85,2202.29 3.28,2215.77 -0.21,2220.69" fill="none" stroke="rgb(105, 233, 220)" stroke-width="2000.00" stroke-opacity="1.00" stroke-linejoin="round"/>
<path d="M0.11,1482.48 C10.85,1500.09 34.34,1538.58 47.08,1559.46 C61.82,1583.61 93.29,1635.18 110.02,1662.60 C128.75,1693.29 168.20,1757.94 188.93,1791.90 C211.63,1829.10 256.68,1902.92 279.02,1939.54 C299.37,1972.88 338.08,2036.31 356.43,2066.38 C372.79,2093.19 403.51,2143.53 417.87,2167.07 C430.24,2187.34 451.19,2221.66 459.77,2235.72 C475.11,2238.70 505.01,2243.45 518.84,2245.50 C535.99,2247.94 568.31,2252.45 583.50,2254.53 C596.71,2256.14 622.73,2259.11 639.11,2260.53 C670.05,2262.46 733.67,2265.91 766.35,2267.42 C783.65,2267.99 817.95,2268.91 834.94,2269.25 C851.42,2269.34 883.97,2269.26 900.06,2269.10 C916.02,2268.72 947.83,2267.75 963.68,2267.17 C995.36,2265.58 1058.27,2261.85 1089.50,2259.71 C1121.02,2257.03 1184.12,2251.25 1215.71,2248.16 C1247.44,2244.61 1311.90,2236.97 1344.62,2232.88 C1376.56,2228.62 1437.57,2220.27 1466.63,2216.18 C1493.75,2212.15 1549.64,2203.57 1578.40,2199.02 C1616.08,2192.71 1679.85,2181.94 1705.94,2177.47 C1735.67,2172.33 1798.74,2161.38 1832.08,2155.58 C1866.36,2149.75 1934.20,2138.45 1967.75,2132.99 C2000.99,2127.84 2069.66,2117.52 2105.09,2112.36 C2139.88,2107.62 2208.52,2098.59 2242.37,2094.30 C2272.61,2090.60 2328.88,2083.85 2354.90,2080.79 C2371.00,2079.01 2407.40,2075.15 2427.71,2073.08 C2458.86,2070.39 2512.01,2066.93 2539.41,2065.26 C2570.47,2063.68 2634.39,2060.72 2667.25,2059.35 C2700.26,2058.62 2765.42,2057.61 2797.56,2057.33 C2827.42,2057.40 2884.84,2058.60 2903.39,2059.16 C2917.67,2075.32 2949.95,2111.88 2967.96,2132.27 C2989.71,2156.90 3036.96,2210.39 3062.45,2239.25 C3091.32,2271.94 3147.09,2335.07 3173.98,2365.53 C3197.14,2391.74 3239.71,2439.94 3259.12,2461.92 C3274.80,2479.67 3295.38,2502.98 3300.30,2508.54" fill="none" stroke="rgb(105, 233, 220)" stroke-width="2000.00" stroke-opacity="1.00" stroke-linejoin="round"/>
<path d="M3299.88,2057.88 C3286.19,2074.11 3255.50,2110.48 3238.50,2130.64 C3218.18,2154.72 3174.22,2206.83 3150.58,2234.85 C3123.62,2266.80 3068.93,2331.63 3041.19,2364.50 C3016.73,2393.50 2971.11,2447.58 2949.96,2472.65 C2932.12,2493.79 2899.77,2532.13 2885.26,2549.33 C2883.68,2551.21 2880.57,2554.89 2879.04,2556.71 C2861.30,2556.99 2810.22,2557.48 2776.88,2557.67 C2736.11,2557.23 2665.69,2556.28 2636.04,2555.78 C2601.84,2555.11 2529.92,2553.61 2492.20,2552.78 C2457.96,2552.04 2394.31,2550.68 2364.89,2550.06 C2324.93,2549.27 2252.17,2547.98 2219.37,2547.47 C2209.83,2547.35 2196.07,2547.17 2191.85,2547.11 C2172.12,2547.24 2130.66,2547.51 2108.93,2547.65 C2085.19,2547.80 2035.72,2548.12 2009.98,2548.29 C1982.24,2548.47 1924.76,2548.84 1895.01,2549.03 C1863.27,2549.24 1797.77,2549.66 1764.02,2549.88 C1728.27,2550.11 1654.76,2550.58 1617.00,2550.83 C1577.25,2551.08 1495.73,2551.61 1453.96,2551.88 C1410.20,2552.16 1321.89,2552.73 1277.34,2553.02 C1234.71,2553.29 1151.43,2553.83 1110.80,2554.09 C1072.17,2554.34 996.91,2554.83 960.28,2555.07 C925.65,2555.29 858.40,2555.72 825.78,2555.93 C795.16,2556.13 735.92,2556.51 707.30,2556.70 C680.69,2556.87 629.46,2557.20 604.85,2557.36 C582.25,2557.51 539.03,2557.79 518.43,2557.92 C513.59,2557.95 505.20,2558.00 501.66,2558.03" fill="none" stroke="rgb(105, 233, 220)" stroke-width="2000.00" stroke-opacity="1.00" stroke-linejoin="round"/>
<path d="M140.06,2177.92 C140.06,2177.92 140.00,2178.00 140.00,2178.00 C135.38,2198.81 125.02,2245.57 119.27,2271.51 C112.38,2302.58 97.46,2369.84 89.43,2406.04 C80.27,2447.36 61.88,2530.33 52.64,2571.97 C44.54,2608.48 29.49,2676.39 22.53,2707.78 C16.70,2734.04 6.19,2781.44 1.51,2802.57 C1.34,2803.34 1.17,2804.10 1.00,2804.87" fill="none" stroke="rgb(105, 233, 220)" stroke-width="2000.00" stroke-opacity="1.00" stroke-linejoin="round"/>
<path d="M318.15,2663.10 C296.24,2651.69 241.48,2623.18 208.63,2606.08 C173.22,2587.64 113.17,2556.37 88.53,2543.54 C86.21,2542.33 81.76,2540.02 79.62,2538.90 C74.93,2516.39 63.80,2462.93 57.35,2431.97 C49.15,2392.57 32.53,2312.75 24.11,2272.33 C17.45,2240.32 5.87,2184.75 0.97,2161.18 C0.72,2159.99 0.23,2157.64 -0.01,2156.48" fill="none" stroke="rgb(105, 233, 220)" stroke-width="2000.00" stroke-opacity="1.00" stroke-linejoin="round"/>
<path d="M512.00,1264.00 C492.10,1265.06 466.53,1267.32 451.27,1269.87 C440.15,1271.96 406.45,1279.88 390.60,1284.18 C375.86,1288.50 352.81,1295.51 344.97,1298.19 C336.16,1317.01 316.77,1358.42 306.20,1381.00 C293.87,1407.34 267.45,1463.78 253.36,1493.87 C237.52,1527.73 204.06,1599.20 186.45,1636.81 C167.77,1676.72 131.92,1753.30 114.75,1789.97 C99.35,1822.89 70.29,1884.96 56.64,1914.12 C44.75,1939.52 22.73,1986.56 12.59,2008.21 C8.19,2017.62 1.74,2031.38 -0.29,2035.74" fill="none" stroke="rgb(105, 233, 220)" stroke-width="2000.00" stroke-opacity="1.00" stroke-linejoin="round"/>
<path d="M412.00,1872.00 C412.00,1872.00 385.39,1865.96 385.39,1865.96 C371.09,1849.84 338.66,1813.27 320.53,1792.82 C298.56,1768.05 250.79,1714.17 224.99,1685.07 C196.08,1652.47 140.89,1590.24 114.61,1560.60 C92.16,1535.28 51.10,1488.98 32.49,1467.99 C17.71,1451.32 1.36,1432.88 -0.22,1431.10" fill="none" stroke="rgb(105, 233, 220)" stroke-width="2000.00" stroke-opacity="1.00" stroke-linejoin="round"/>
<path d="M3.00,1742.50 C2.97,1745.50 2.90,1752.68 2.86,1756.86 C2.84,1762.16 2.93,1766.24 3.00,1767.41" fill="none" stroke="rgb(105, 233, 220)" stroke-width="2000.00" stroke-opacity="1.00" stroke-linejoin="round"/>
<path d="M6.50,1903.00 C5.69,1902.59 5.19,1902.32 4.99,1902.19 C4.80,1902.06 4.63,1901.89 4.50,1901.67" fill="none" stroke="rgb(105, 233, 220)" stroke-width="2000.00" stroke-opacity="1.00" stroke-linejoin="round"/>
<path d="M3298.00,1258.00 C3298.00,1258.00 3294.00,1256.00 3294.00,1256.00" fill="none" stroke="rgb(105, 233, 220)" stroke-width="2000.00" stroke-opacity="1.00" stroke-linejoin="round"/>
<path d="M3292.00,1108.00 C3292.00,1108.00 3290.00,1104.00 3290.00,1104.00 C3290.00,1104.00 3293.31,1105.50 3293.31,1105.50" fill="none" stroke="rgb(105, 233, 220)" stroke-width="2000.00" stroke-opacity="1.00" stroke-linejoin="round"/>
<path d="M3280.00,740.00 C3280.00,740.00 3282.08,738.00 3282.08,738.00" fill="none" stroke="rgb(105, 233, 220)" stroke-width="2000.00" stroke-opacity="1.00" stroke-linejoin="round"/>
<path d="M3290.00,1694.00 C3289.96,1692.45 3289.83,1688.17 3290.07,1687.53 C3290.23,1687.12 3290.71,1686.61 3291.52,1686.02" fill="none" stroke="rgb(105, 233, 220)" stroke-width="2000.00" stroke-opacity="1.00" stroke-linejoin="round"/>
</g>
</svg>
