<?xml version="1.0" encoding="UTF-8" standalone="no"?>
<!DOCTYPE svg PUBLIC "-//W3C//DTD SVG 1.1//EN" "http://www.w3.org/Graphics/SVG/1.1/DTD/svg11.dtd">
<svg width="792.00" height="614.16" viewBox="0.00 0.00 3300.00 2559.00" xmlns="http://www.w3.org/2000/svg" xmlns:xlink="http://www.w3.org/1999/xlink">
<g stroke-linecap="round" id="Sun">
<path d="M476.00,388.00" fill="none" stroke="rgb(254, 235, 12)" stroke-width="2000.00" stroke-opacity="1.00" stroke-linejoin="round"/>
<path d="M444.00,380.00 C444.00,380.00 444.00,376.00 444.00,376.00 C444.00,376.00 444.00,372.00 444.00,372.00 C444.00,372.00 448.00,368.00 448.00,368.00 C450.56,368.36 457.89,369.39 460.59,370.39 C464.12,371.75 469.43,375.98 472.61,379.85 C473.61,381.07 475.31,383.15 476.00,384.00 C474.26,390.72 469.78,407.88 468.00,412.00 C466.94,414.35 465.21,417.10 464.29,417.51 C462.66,418.15 457.08,415.56 452.76,412.95 C448.89,410.54 433.23,399.65 428.00,396.00 C428.00,396.00 424.00,388.00 424.00,388.00 C425.05,376.80 426.29,367.27 429.75,359.80 C431.69,355.67 439.32,344.96 440.00,344.00 C440.00,344.00 448.00,340.00 448.00,340.00 C454.49,339.80 470.13,339.46 476.09,340.62 C477.91,340.99 485.05,343.60 488.00,344.00 C491.39,344.43 501.27,343.77 502.00,344.00 C503.14,344.37 508.24,348.16 512.66,350.11 C515.79,351.42 526.20,355.67 526.68,355.88 C530.63,357.62 537.83,362.24 540.97,365.05 C544.02,367.81 549.05,374.16 551.12,377.63 C554.26,382.96 560.80,400.33 563.04,405.82 C565.14,410.60 567.86,414.85 568.00,416.00 C568.12,417.09 562.94,462.98 560.81,480.38 C560.02,485.91 559.26,488.92 557.45,491.96 C556.55,493.43 554.41,495.37 553.63,496.07 C552.26,497.30 551.83,498.46 552.06,499.91 C552.30,501.37 551.62,502.80 550.00,504.17 C548.74,505.22 548.07,505.83 548.00,506.00 C547.73,506.61 548.25,507.38 548.00,508.00 C547.81,508.50 544.20,511.50 544.00,512.00 C544.00,513.00 543.82,514.48 542.06,515.94 C540.26,517.43 539.75,518.53 540.00,520.00 C538.57,519.76 536.59,520.59 536.00,522.00 C535.84,522.38 535.84,523.05 536.00,524.00 C536.00,524.00 532.00,524.00 532.00,524.00 C532.24,525.43 531.36,527.51 530.00,528.00 C529.37,528.23 528.61,527.73 528.00,528.00 C527.75,528.10 524.88,531.54 524.00,532.00 C523.15,532.46 521.23,532.30 520.00,532.00 C520.24,533.43 519.36,535.52 518.00,536.00 C517.37,536.23 516.61,535.73 516.00,536.00 C515.74,536.11 512.83,539.59 512.00,540.00 C511.13,540.45 508.21,539.89 508.00,540.00 C507.85,540.07 505.28,542.73 504.34,543.23 C502.69,544.10 496.66,543.64 496.00,544.00 C495.28,544.39 493.46,547.30 492.00,548.00 C490.86,548.54 481.74,548.25 480.00,548.00 C478.38,547.80 477.83,548.09 476.17,550.00 C474.92,551.44 473.28,552.44 472.17,552.34 C469.32,551.89 436.00,552.00 429.89,552.21 C427.95,552.22 425.11,550.73 424.00,550.00 C424.00,550.00 424.00,548.00 424.00,548.00 C422.68,548.10 418.43,548.39 417.35,548.41 C415.11,548.43 412.91,547.58 410.83,546.00 C408.51,544.24 407.07,543.57 405.26,543.59 C404.40,543.61 401.05,543.90 400.00,544.00 C399.70,542.51 398.90,540.45 398.00,540.00 C397.10,539.55 394.09,539.70 392.00,540.00 C392.24,538.57 391.41,536.64 390.00,536.00 C389.42,535.73 386.58,536.27 386.00,536.00 C384.59,535.36 383.76,533.43 384.00,532.00 C384.00,532.00 380.00,532.00 380.00,532.00 C380.24,530.57 379.35,528.48 378.00,528.00 C377.00,528.00 375.52,527.82 373.51,525.82 C371.85,524.15 368.18,520.48 368.00,520.00 C368.00,519.00 367.52,516.65 366.00,516.00 C365.62,515.84 364.95,515.84 364.00,516.00 C364.30,514.75 364.45,512.80 364.00,512.00 C363.68,511.42 360.32,508.58 360.00,508.00 C359.55,507.20 359.70,505.25 360.00,504.00 C358.57,504.24 356.64,503.41 356.00,502.00 C355.73,501.42 356.27,498.58 356.00,498.00 C355.36,496.59 353.43,495.76 352.00,496.00 C352.30,494.75 352.45,492.80 352.00,492.00 C351.68,491.42 348.32,488.58 348.00,488.00 C347.55,487.20 347.70,485.25 348.00,484.00 C346.51,483.70 344.45,482.90 344.00,482.00 C343.55,481.10 343.70,478.09 344.00,476.00 C342.57,476.24 340.64,475.41 340.00,474.00 C339.74,473.43 340.27,470.47 340.00,470.00 C339.97,469.95 336.47,467.13 336.00,466.00 C335.55,464.91 335.70,461.97 336.00,460.00 C334.49,459.98 332.57,459.20 332.00,458.00 C331.61,457.15 332.00,453.12 332.22,451.14 C332.39,448.97 331.91,447.77 330.06,445.37 C328.54,443.40 327.65,441.09 327.62,438.82 C327.61,435.34 327.93,429.32 328.00,428.00 C326.55,427.76 324.50,426.89 324.00,426.00 C323.41,424.94 324.00,336.14 324.00,306.28 C324.00,305.52 324.00,304.76 324.00,304.00 C325.45,304.06 327.35,303.31 328.00,302.00 C328.59,300.80 328.10,293.39 328.00,292.00 C329.49,291.70 331.55,290.90 332.00,290.00 C332.45,289.10 332.30,286.09 332.00,284.00 C332.00,284.00 336.00,284.00 336.00,284.00 C336.00,284.00 336.00,280.00 336.00,280.00 C337.48,280.21 338.51,279.79 340.00,278.14 C341.43,276.53 343.93,274.16 344.00,274.00 C344.26,273.39 343.79,272.63 344.00,272.00 C344.09,271.74 360.67,254.81 365.97,249.79 C367.62,248.19 368.86,247.58 370.35,247.68 C370.67,247.70 371.22,247.81 372.00,248.00 C372.30,246.51 373.10,244.45 374.00,244.00 C374.90,243.55 377.91,243.70 380.00,244.00 C380.18,242.49 381.00,240.57 382.00,240.00 C382.70,239.61 385.80,240.00 387.32,240.22 C389.03,240.40 390.83,239.66 393.03,238.00 C395.29,236.30 396.95,235.60 398.63,235.78 C400.13,236.00 403.21,236.39 404.00,236.00 C404.93,235.54 407.70,232.17 408.00,232.00 C409.56,231.14 417.20,232.62 418.00,232.00 C418.68,231.46 420.90,228.59 422.00,228.00 C423.06,227.44 434.40,228.06 436.00,228.00 C436.24,226.51 437.09,224.50 438.00,224.00 C439.04,223.45 459.02,224.57 467.39,223.69 C472.94,223.09 487.99,220.13 496.00,220.00 C503.07,219.92 514.81,221.25 525.95,222.96 C536.02,224.64 541.37,226.05 548.00,228.00 C557.25,236.53 580.74,258.25 591.23,270.66 C596.58,277.00 606.94,291.54 611.40,298.92 C613.79,302.89 622.90,319.60 625.71,325.16 C627.61,329.10 630.50,335.87 631.29,339.07 C631.81,341.28 631.36,346.75 631.63,351.14 C632.21,358.72 633.71,372.11 634.86,380.29 C636.14,389.34 636.53,405.46 635.36,412.80 C633.90,421.75 627.56,436.10 624.84,442.13 C624.56,442.76 624.28,443.38 624.00,444.00 C624.00,444.00 568.00,504.00 568.00,504.00" fill="none" stroke="rgb(254, 235, 12)" stroke-width="1000.00" stroke-opacity="1.00" stroke-linejoin="round"/>
</g>
</svg>
