<?xml version="1.0" encoding="UTF-8" standalone="no"?>
<!DOCTYPE svg PUBLIC "-//W3C//DTD SVG 1.1//EN" "http://www.w3.org/Graphics/SVG/1.1/DTD/svg11.dtd">
<svg width="792.00" height="614.16" viewBox="0.00 0.00 3300.00 2559.00" xmlns="http://www.w3.org/2000/svg" xmlns:xlink="http://www.w3.org/1999/xlink">
<g stroke-linecap="round" id="Town">
<path d="M1104.00,1160.00 L1200.00,1160.00 L1200.00,1372.00 L1104.00,1372.00 L1104.00,1160.00 Z" fill="none" stroke="rgb(176, 114, 84)" stroke-width="102.00" stroke-opacity="1.00" stroke-linejoin="miter"/>
<path d="M1624.00,1008.00 L1720.00,1008.00 L1720.00,1400.00 L1624.00,1400.00 L1624.00,1008.00 Z" fill="none" stroke="rgb(176, 114, 84)" stroke-width="102.00" stroke-opacity="1.00" stroke-linejoin="miter"/>
<path d="M2072.00,1180.00 L2164.00,1180.00 L2164.00,1400.00 L2072.00,1400.00 L2072.00,1180.00 Z" fill="none" stroke="rgb(176, 114, 84)" stroke-width="102.00" stroke-opacity="1.00" stroke-linejoin="miter"/>
<path d="M1840.00,1248.00 L1928.00,1248.00 L1928.00,1476.00 L1840.00,1476.00 L1840.00,1248.00 Z" fill="none" stroke="rgb(176, 114, 84)" stroke-width="102.00" stroke-opacity="1.00" stroke-linejoin="miter"/>
<path d="M696.00,1340.00 L940.00,1340.00 L940.00,1420.00 L696.00,1420.00 L696.00,1340.00 Z" fill="none" stroke="rgb(176, 114, 84)" stroke-width="102.00" stroke-opacity="1.00" stroke-linejoin="miter"/>
<path d="M1372.00,1220.00 L1456.00,1220.00 L1456.00,1404.00 L1372.00,1404.00 L1372.00,1220.00 Z" fill="none" stroke="rgb(176, 114, 84)" stroke-width="102.00" stroke-opacity="1.00" stroke-linejoin="miter"/>
<path d="M2152.00,980.00 L2244.00,980.00 L2244.00,1476.00 L2152.00,1476.00 L2152.00,980.00 Z" fill="none" stroke="rgb(222, 131, 87)" stroke-width="102.00" stroke-opacity="1.00" stroke-linejoin="miter"/>
<path d="M1452.00,1032.00 L1556.00,1032.00 L1556.00,1448.00 L1452.00,1448.00 L1452.00,1032.00 Z" fill="none" stroke="rgb(222, 131, 87)" stroke-width="102.00" stroke-opacity="1.00" stroke-linejoin="miter"/>
<path d="M1484.00,1080.00 L1528.00,1080.00 L1528.00,1384.00 L1484.00,1384.00 L1484.00,1080.00 Z" fill="none" stroke="rgb(222, 131, 87)" stroke-width="102.00" stroke-opacity="1.00" stroke-linejoin="miter"/>
<path d="M472.00,1172.00 L688.00,1172.00 L688.00,1536.00 L472.00,1536.00 L472.00,1172.00 Z" fill="none" stroke="rgb(222, 131, 87)" stroke-width="102.00" stroke-opacity="1.00" stroke-linejoin="miter"/>
<path d="M504.00,1200.00 L592.00,1200.00 L592.00,1464.00 L504.00,1464.00 L504.00,1200.00 Z" fill="none" stroke="rgb(222, 131, 87)" stroke-width="102.00" stroke-opacity="1.00" stroke-linejoin="miter"/>
<path d="M2456.00,744.00 L2556.00,744.00 L2556.00,1540.00 L2456.00,1540.00 L2456.00,744.00 Z" fill="none" stroke="rgb(222, 131, 87)" stroke-width="102.00" stroke-opacity="1.00" stroke-linejoin="miter"/>
<path d="M1248.00,984.00 L1344.00,984.00 L1344.00,1536.00 L1248.00,1536.00 L1248.00,984.00 Z" fill="none" stroke="rgb(250, 118, 53)" stroke-width="102.00" stroke-opacity="1.00" stroke-linejoin="miter"/>
<path d="M2220.00,1100.00 L2564.00,1100.00 L2564.00,1672.00 L2220.00,1672.00 L2220.00,1100.00 Z" fill="none" stroke="rgb(250, 118, 53)" stroke-width="102.00" stroke-opacity="1.00" stroke-linejoin="miter"/>
<path d="M2244.00,1140.00 L2512.00,1140.00 L2512.00,1628.00 L2244.00,1628.00 L2244.00,1140.00 Z" fill="none" stroke="rgb(250, 118, 53)" stroke-width="102.00" stroke-opacity="1.00" stroke-linejoin="miter"/>
<path d="M2304.00,1188.00 L2476.00,1188.00 L2476.00,1588.00 L2304.00,1588.00 L2304.00,1188.00 Z" fill="none" stroke="rgb(250, 118, 53)" stroke-width="102.00" stroke-opacity="1.00" stroke-linejoin="miter"/>
<path d="M2344.00,1200.00 L2464.00,1200.00 L2464.00,1560.00 L2344.00,1560.00 L2344.00,1200.00 Z" fill="none" stroke="rgb(250, 118, 53)" stroke-width="102.00" stroke-opacity="1.00" stroke-linejoin="miter"/>
<path d="M2356.00,1216.00 L2452.00,1216.00 L2452.00,1512.00 L2356.00,1512.00 L2356.00,1216.00 Z" fill="none" stroke="rgb(250, 118, 53)" stroke-width="102.00" stroke-opacity="1.00" stroke-linejoin="miter"/>
</g>
</svg>
